<svg version="1.1" viewBox="0.0 0.0 960.0 960.0" fill="none" stroke="none" stroke-linecap="square" stroke-miterlimit="10" xmlns:xlink="http://www.w3.org/1999/xlink" xmlns="http://www.w3.org/2000/svg"><clipPath id="p.0"><path d="m0 0l960.0 0l0 960.0l-960.0 0l0 -960.0z" clip-rule="nonzero"/></clipPath><g clip-path="url(#p.0)"><path fill="#000000" fill-opacity="0.0" d="m0 0l960.0 0l0 960.0l-960.0 0z" fill-rule="evenodd"/><defs><radialGradient id="p.1" gradientUnits="userSpaceOnUse" gradientTransform="matrix(26.054222432490278 0.0 0.0 26.054222432490278 0.0 0.0)" spreadMethod="pad" cx="18.42372188520599" cy="18.423117452218715" fx="18.42372188520599" fy="18.423117452218715" r="26.054222106933594"><stop offset="0.0" stop-color="#ffff00"/><stop offset="0.24" stop-color="#ffff00"/><stop offset="0.56" stop-color="#fff2cc"/><stop offset="0.99999994" stop-color="#fff2cc" stop-opacity="0.0"/><stop offset="1.0" stop-color="#ffffff" stop-opacity="0.0"/></radialGradient></defs><path fill="url(#p.1)" d="m0.015748031 480.0l0 0c0 -265.09668 214.90332 -480.0 480.0 -480.0l0 0c127.303894 0 249.3938 50.571285 339.41125 140.58875c90.017456 90.017456 140.58875 212.10733 140.58875 339.41125l0 0c0 265.09668 -214.90332 480.0 -480.0 480.0l0 0c-265.09668 0 -480.0 -214.90332 -480.0 -480.0z" fill-rule="evenodd"/><defs><radialGradient id="p.2" gradientUnits="userSpaceOnUse" gradientTransform="matrix(19.104992493821516 0.0 0.0 19.104992493821516 0.0 0.0)" spreadMethod="pad" cx="25.124322878181204" cy="25.124322878181204" fx="25.124322878181204" fy="25.124322878181204" r="19.104991912841797"><stop offset="0.0" stop-color="#f48208"/><stop offset="0.12" stop-color="#ff7d00"/><stop offset="0.32" stop-color="#ff9900"/><stop offset="0.53" stop-color="#f3a21d"/><stop offset="0.8" stop-color="#ffff00"/><stop offset="1.0" stop-color="#ffff00"/></radialGradient></defs><path fill="url(#p.2)" d="m221.90552 480.0l0 0c0 -142.54166 115.552826 -258.09448 258.09448 -258.09448l0 0c68.45093 0 134.09827 27.192017 182.50037 75.59412c48.4021 48.4021 75.59412 114.04944 75.59412 182.50037l0 0c0 142.54163 -115.55286 258.09448 -258.09448 258.09448l0 0c-142.54166 0 -258.09448 -115.55286 -258.09448 -258.09448z" fill-rule="evenodd"/><path stroke="#000000" stroke-width="1.0" stroke-linejoin="round" stroke-linecap="butt" d="m221.90552 480.0l0 0c0 -142.54166 115.552826 -258.09448 258.09448 -258.09448l0 0c68.45093 0 134.09827 27.192017 182.50037 75.59412c48.4021 48.4021 75.59412 114.04944 75.59412 182.50037l0 0c0 142.54163 -115.55286 258.09448 -258.09448 258.09448l0 0c-142.54166 0 -258.09448 -115.55286 -258.09448 -258.09448z" fill-rule="evenodd"/></g></svg>